<?xml version="1.0" encoding="utf-8"?>
<svg version="1.1" xmlns:xlink="http://www.w3.org/1999/xlink" width="300px" height="35px" xmlns="http://www.w3.org/2000/svg">
  <defs>
    <mask fill="white" id="clip47">
      <path d="M 0 28  L 0 7  C 0 3.0799999999999996  3.0799999999999996 0  7 0  L 288.77450980392155 0  L 293 0  C 296.92 0  300 3.0799999999999996  300 7  L 300 28  C 300 31.92  296.92 35  293 35  L 7 35  C 3.0799999999999996 35  0 31.92  0 28  Z " fill-rule="evenodd" />
    </mask>
  </defs>
  <g>
    <path d="M 0 28  L 0 7  C 0 3.0799999999999996  3.0799999999999996 0  7 0  L 288.77450980392155 0  L 293 0  C 296.92 0  300 3.0799999999999996  300 7  L 300 28  C 300 31.92  296.92 35  293 35  L 7 35  C 3.0799999999999996 35  0 31.92  0 28  Z " fill-rule="nonzero" fill="#27282a" stroke="none" />
    <path d="M 0 28  L 0 7  C 0 3.0799999999999996  3.0799999999999996 0  7 0  L 288.77450980392155 0  L 293 0  C 296.92 0  300 3.0799999999999996  300 7  L 300 28  C 300 31.92  296.92 35  293 35  L 7 35  C 3.0799999999999996 35  0 31.92  0 28  Z " stroke-width="2" stroke="#000000" fill="none" stroke-opacity="0.11764705882352941" mask="url(#clip47)" />
  </g>
</svg>