<?xml version="1.0" encoding="utf-8"?>
<svg version="1.1" xmlns:xlink="http://www.w3.org/1999/xlink" width="286px" height="26px" xmlns="http://www.w3.org/2000/svg">
  <defs>
    <mask fill="white" id="clip46">
      <path d="M 0 19  L 0 7  C 0 3.0799999999999983  3.08 0  7 0  L 279 0  C 282.92 0  286 3.0799999999999983  286 7  L 286 9.788990825688046  L 286 19  C 286 22.92  282.92 26  279 26  L 7 26  C 3.08 26  0 22.92  0 19  Z " fill-rule="evenodd" />
    </mask>
  </defs>
  <g transform="matrix(1 0 0 1 0 -26 )">
    <path d="M 0 19  L 0 7  C 0 3.0799999999999983  3.08 0  7 0  L 279 0  C 282.92 0  286 3.0799999999999983  286 7  L 286 9.788990825688046  L 286 19  C 286 22.92  282.92 26  279 26  L 7 26  C 3.08 26  0 22.92  0 19  Z " fill-rule="nonzero" fill="#303136" stroke="none" transform="matrix(1 0 0 1 0 26 )" />
    <path d="M 0 19  L 0 7  C 0 3.0799999999999983  3.08 0  7 0  L 279 0  C 282.92 0  286 3.0799999999999983  286 7  L 286 9.788990825688046  L 286 19  C 286 22.92  282.92 26  279 26  L 7 26  C 3.08 26  0 22.92  0 19  Z " stroke-width="2" stroke="#000000" fill="none" stroke-opacity="0.11764705882352941" transform="matrix(1 0 0 1 0 26 )" mask="url(#clip46)" />
  </g>
</svg>