<?xml version="1.0" encoding="utf-8"?>
<svg version="1.1" xmlns:xlink="http://www.w3.org/1999/xlink" width="10px" height="20px" xmlns="http://www.w3.org/2000/svg">
  <g transform="matrix(1 0 0 1 -8 -3 )">
    <path d="M 9.860813704496788 12.176339285714286  C 9.953604568165597 12.503720238095237  10.000000000000002 12.853422619047619  10 13.225446428571427  C 10.000000000000002 14.363839285714286  9.644896502498217 15.344122023809524  8.934689507494646 16.166294642857146  C 8.224482512491079 16.988467261904763  7.301927194860813 17.496279761904763  6.167023554603855 17.689732142857142  L 6.167023554603855 19.642857142857142  C 6.167023554603855 19.74702380952381  6.134903640256959 19.832589285714285  6.070663811563169 19.899553571428573  C 6.006423982869379 19.966517857142858  5.924339757316202 20  5.82441113490364 20  L 4.379014989293362 20  C 4.286224125624554 20  4.205924339757317 19.964657738095237  4.138115631691649 19.893973214285715  C 4.0703069236259815 19.82328869047619  4.036402569593148 19.739583333333336  4.036402569593148 19.642857142857142  L 4.036402569593148 17.689732142857142  C 3.5653104925053536 17.622767857142858  3.1102783725910066 17.507440476190478  2.6713062098501075 17.34375  C 2.2323340471092075 17.180059523809522  1.870092790863669 17.014508928571427  1.5845824411134903 16.847098214285715  C 1.2990720913633118 16.6796875  1.034975017844397 16.501116071428573  0.7922912205567452 16.311383928571427  C 0.5496074232690936 16.121651785714285  0.38365453247680237 15.982142857142856  0.2944325481798715 15.892857142857144  C 0.2052105638829408 15.803571428571427  0.14275517487508926 15.736607142857144  0.1070663811563169 15.691964285714286  C -0.014275517487508872 15.535714285714286  -0.021413276231263385 15.383184523809524  0.08565310492505354 15.234375  L 1.1884368308351176 13.727678571428573  C 1.2384011420413992 13.65327380952381  1.3204853675945754 13.60863095238095  1.4346895074946466 13.59375  C 1.5417558886509637 13.578869047619047  1.6274089935760172 13.612351190476188  1.6916488222698072 13.694196428571427  L 1.7130620985010705 13.716517857142856  C 2.519628836545325 14.453125  3.386866523911492 14.918154761904763  4.314775160599572 15.111607142857144  C 4.578872234118487 15.17113095238095  4.842969307637403 15.200892857142856  5.107066381156317 15.200892857142856  C 5.685224839400428 15.200892857142856  6.1937901498929335 15.040922619047619  6.632762312633833 14.720982142857144  C 7.071734475374733 14.401041666666664  7.2912205567451815 13.947172619047619  7.2912205567451815 13.359375  C 7.2912205567451815 13.151041666666664  7.237687366167024 12.953869047619047  7.130620985010707 12.767857142857144  C 7.0235546038543895 12.581845238095237  6.903997144896503 12.425595238095237  6.771948608137045 12.299107142857144  C 6.639900071377588 12.172619047619047  6.431120628122771 12.033110119047619  6.14561027837259 11.880580357142856  C 5.860099928622413 11.728050595238093  5.6245538900785155 11.609002976190474  5.4389721627409 11.5234375  C 5.2533904354032845 11.437872023809524  4.967880085653105 11.316964285714286  4.582441113490364 11.160714285714286  C 4.30406852248394 11.041666666666664  4.08458244111349 10.948660714285714  3.923982869379015 10.881696428571427  C 3.76338329764454 10.814732142857144  3.54389721627409 10.716145833333332  3.265524625267666 10.5859375  C 2.987152034261242 10.455729166666664  2.764097073518915 10.340401785714286  2.5963597430406855 10.239955357142856  C 2.428622412562456 10.139508928571427  2.226980728051392 10.007440476190474  1.9914346895074946 9.84375  C 1.7558886509635974 9.680059523809524  1.5649536045681658 9.521949404761905  1.418629550321199 9.369419642857142  C 1.2723054960742328 9.21688988095238  1.1170592433975732 9.034598214285714  0.9528907922912205 8.822544642857142  C 0.7887223411848681 8.61049107142857  0.6620271234832263 8.394717261904761  0.5728051391862955 8.175223214285714  C 0.4835831548893648 7.955729166666665  0.40863668807994297 7.708333333333332  0.34796573875802994 7.4330357142857135  C 0.28729478943611714 7.157738095238095  0.2569593147751606 6.867559523809524  0.2569593147751606 6.5625  C 0.2569593147751606 5.5357142857142865  0.606709493219129 4.635416666666665  1.3062098501070663 3.861607142857142  C 2.005710206995004 3.0877976190476164  2.915774446823698 2.589285714285714  4.036402569593148 2.366071428571428  L 4.036402569593148 0.3571428571428581  C 4.036402569593148 0.2604166666666652  4.0703069236259815 0.1767113095238093  4.138115631691649 0.10602678571428603  C 4.205924339757317 0.03534226190476275  4.286224125624554 0  4.379014989293362 0  L 5.82441113490364 0  C 5.924339757316202 0  6.006423982869379 0.033482142857141906  6.070663811563169 0.10044642857142794  C 6.134903640256959 0.16741071428571397  6.167023554603855 0.25297619047618847  6.167023554603855 0.3571428571428581  L 6.167023554603855 2.321428571428572  C 6.573875802997859 2.366071428571428  6.968236973590293 2.4516369047619024  7.350107066381156 2.578125  C 7.731977159172021 2.7046130952380953  8.04246966452534 2.829241071428572  8.281584582441115 2.952008928571428  C 8.520699500356889 3.074776785714286  8.747323340471093 3.214285714285714  8.961456102783727 3.370535714285714  C 9.17558886509636 3.526785714285714  9.314775160599572 3.6346726190476164  9.379014989293362 3.694196428571428  C 9.443254817987153 3.7537202380952372  9.49678800856531 3.805803571428572  9.539614561027838 3.850446428571428  C 9.660956459671663 3.984375  9.67880085653105 4.125744047619047  9.593147751605995 4.274553571428572  L 8.725910064239828 5.904017857142858  C 8.668807994289793 6.015625  8.586723768736617 6.075148809523809  8.4796573875803 6.0825892857142865  C 8.379728765167737 6.1049107142857135  8.283369022127053 6.078869047619047  8.190578158458244 6.0044642857142865  C 8.16916488222698 5.982142857142858  8.117416131334762 5.9375  8.035331905781584 5.8705357142857135  C 7.95324768022841 5.803571428571428  7.814061384725198 5.704985119047617  7.617773019271948 5.5747767857142865  C 7.421484653818702 5.444568452380951  7.212705210563883 5.325520833333332  6.991434689507495 5.217633928571428  C 6.770164168451107 5.109747023809524  6.504282655246253 5.013020833333332  6.1937901498929335 4.927455357142858  C 5.883297644539614 4.84188988095238  5.578158458244111 4.799107142857142  5.278372591006423 4.799107142857142  C 4.60028551034975 4.799107142857142  4.04710920770878 4.95907738095238  3.618843683083512 5.279017857142858  C 3.190578158458244 5.598958333333332  2.9764453961456105 6.011904761904761  2.9764453961456105 6.517857142857142  C 2.9764453961456105 6.711309523809524  3.0067808708065673 6.889880952380951  3.0674518201284795 7.053571428571428  C 3.1281227694503926 7.217261904761902  3.233404710920771 7.3716517857142865  3.3832976445396143 7.516741071428572  C 3.5331905781584583 7.661830357142858  3.674161313347609 7.7845982142857135  3.8062098501070665 7.885044642857142  C 3.9382583868665244 7.985491071428572  4.138115631691649 8.10081845238095  4.405781584582441 8.231026785714286  C 4.673447537473233 8.361235119047617  4.889364739471806 8.461681547619047  5.053533190578159 8.532366071428573  C 5.217701641684512 8.603050595238095  5.467523197715918 8.705357142857142  5.802997858672377 8.839285714285714  C 6.181299072091364 8.988095238095237  6.47037830121342 9.105282738095237  6.670235546038544 9.190848214285714  C 6.87009279086367 9.27641369047619  7.141327623126338 9.406622023809524  7.483940042826553 9.581473214285714  C 7.826552462526767 9.756324404761905  8.096002855103498 9.914434523809524  8.292291220556745 10.055803571428573  C 8.488579586009994 10.197172619047619  8.709850107066382 10.383184523809524  8.95610278372591 10.613839285714286  C 9.20235546038544 10.844494047619047  9.391506067094934 11.080729166666664  9.52355460385439 11.322544642857144  C 9.655603140613847 11.564360119047619  9.76802284082798 11.84895833333333  9.860813704496788 12.176339285714286  Z " fill-rule="nonzero" fill="#7ac8b3" stroke="none" transform="matrix(1 0 0 1 8 3 )" />
  </g>
</svg>