<?xml version="1.0" encoding="utf-8"?>
<svg version="1.1" xmlns:xlink="http://www.w3.org/1999/xlink" width="23px" height="23px" xmlns="http://www.w3.org/2000/svg">
  <g transform="matrix(1 0 0 1 -5 -6 )">
    <path d="M 16.5 6.5  C 22.66 6.5  27.5 11.34  27.5 17.5  C 27.5 23.66  22.66 28.5  16.5 28.5  C 10.34 28.5  5.5 23.66  5.5 17.5  C 5.5 11.34  10.34 6.5  16.5 6.5  Z " fill-rule="nonzero" fill="#27282a" stroke="none" />
    <path d="M 16.5 6.5  C 22.66 6.5  27.5 11.34  27.5 17.5  C 27.5 23.66  22.66 28.5  16.5 28.5  C 10.34 28.5  5.5 23.66  5.5 17.5  C 5.5 11.34  10.34 6.5  16.5 6.5  Z " stroke-width="1" stroke-dasharray="3,1" stroke="#303136" fill="none" stroke-dashoffset="0.5" />
  </g>
</svg>