<?xml version="1.0" encoding="utf-8"?>
<svg version="1.1" xmlns:xlink="http://www.w3.org/1999/xlink" width="9px" height="16px" xmlns="http://www.w3.org/2000/svg">
  <g transform="matrix(1 0 0 1 -280 -10 )">
    <path d="M 9 8  C 9 8.172043010752688  8.944980694980694 8.320926385442514  8.834942084942085 8.446650124069478  L 2.388996138996139 15.811414392059554  C 2.2789575289575295 15.937138130686519  2.148648648648649 16  1.9980694980694982 16  C 1.8474903474903477 16  1.7171814671814674 15.937138130686519  1.6071428571428572 15.811414392059554  L 0.16505791505791506 14.163771712158809  C 0.055019305019305104 14.038047973531844  0 13.889164598842017  0 13.71712158808933  C 0 13.545078577336643  0.055019305019305104 13.396195202646815  0.16505791505791506 13.27047146401985  L 4.777992277992278 8  L 0.16505791505791506 2.7295285359801493  C 0.055019305019305104 2.603804797353183  0 2.4549214226633573  0 2.2828784119106693  C 0 2.1108354011579795  0.055019305019305104 1.961952026468154  0.16505791505791506 1.836228287841191  L 1.6071428571428572 0.1885856079404462  C 1.7171814671814674 0.06286186931348148  1.8474903474903477 0  1.9980694980694982 0  C 2.148648648648649 0  2.2789575289575295 0.06286186931348148  2.388996138996139 0.1885856079404462  L 8.834942084942085 7.553349875930522  C 8.944980694980694 7.679073614557485  9 7.827956989247312  9 8  Z " fill-rule="nonzero" fill="#707070" stroke="none" transform="matrix(1 0 0 1 280 10 )" />
  </g>
</svg>