<?xml version="1.0" encoding="utf-8"?>
<svg version="1.1" xmlns:xlink="http://www.w3.org/1999/xlink" width="18px" height="15px" xmlns="http://www.w3.org/2000/svg">
  <g transform="matrix(1 0 0 1 -3 -58 )">
    <path d="M 16.158050847457627 3.7382812499999996  C 16.878813559322033 3.203125  17.50423728813559 2.5390625  18 1.77734375  C 17.336440677966102 2.078125  16.627118644067796 2.28125  15.87966101694915 2.375  C 16.642372881355932 1.90625  17.22966101694915 1.1640624999999998  17.50423728813559 0.28124999999999956  C 16.791101694915255 0.7148437499999993  16.001694915254237 1.0312499999999996  15.158898305084746 1.1992187499999996  C 14.483898305084747 0.4609374999999999  13.522881355932205 0  12.46271186440678 0  C 10.422457627118645 0  8.771186440677965 1.6953125000000002  8.771186440677965 3.7851562500000004  C 8.771186440677965 4.08203125  8.801694915254238 4.371093750000001  8.866525423728813 4.6484375  C 5.796610169491525 4.4921875  3.073728813559322 2.984375  1.2546610169491528 0.6914062500000001  C 0.9381355932203393 1.25  0.7550847457627121 1.90234375  0.7550847457627121 2.5937500000000004  C 0.7550847457627121 3.9062500000000004  1.4110169491525424 5.066406249999999  2.402542372881356 5.746093750000001  C 1.792372881355932 5.730468750000001  1.2203389830508475 5.55859375  0.7245762711864406 5.273437500000001  L 0.7245762711864406 5.320312500000001  C 0.7245762711864406 7.15625  1.9983050847457628 8.683593750000002  3.6877118644067797 9.031250000000002  C 3.378813559322034 9.117187500000002  3.0508474576271185 9.1640625  2.7152542372881356 9.1640625  C 2.4788135593220337 9.1640625  2.2461864406779664 9.140625  2.0211864406779663 9.093750000000002  C 2.4902542372881356 10.59765625  3.855508474576271 11.69140625  5.4724576271186445 11.722656250000002  C 4.2101694915254235 12.73828125  2.616101694915254 13.34375  0.8847457627118646 13.34375  C 0.5872881355932206 13.34375  0.2936440677966103 13.32421875  0.0038135593220339522 13.289062500000002  C 1.6322033898305084 14.375  3.573305084745763 15  5.655508474576272 15  C 12.455084745762711 15  16.16949152542373 9.23046875  16.16949152542373 4.2265625  C 16.16949152542373 4.0625  16.165677966101693 3.898437499999999  16.158050847457627 3.7382812499999996  Z " fill-rule="nonzero" fill="#3e9ef8" stroke="none" transform="matrix(1 0 0 1 3 58 )" />
  </g>
</svg>