<?xml version="1.0" encoding="utf-8"?>
<svg version="1.1" xmlns:xlink="http://www.w3.org/1999/xlink" width="13px" height="16px" xmlns="http://www.w3.org/2000/svg">
  <g transform="matrix(1 0 0 1 -6 -135 )">
    <path d="M 9.783854166666666 0.6071428571428577  L 12.424479166666666 3.3928571428571423  C 12.582465277777779 3.5595238095238084  12.717881944444445 3.7857142857142865  12.830729166666666 4.071428571428571  C 12.94357638888889 4.357142857142858  13 4.619047619047619  13 4.857142857142858  L 13 15.142857142857142  C 13 15.380952380952381  12.921006944444443 15.583333333333332  12.763020833333334 15.75  C 12.605034722222223 15.916666666666668  12.413194444444445 16  12.1875 16  L 0.8125 16  C 0.5868055555555556 16  0.3949652777777778 15.916666666666668  0.23697916666666669 15.75  C 0.07899305555555555 15.583333333333332  0 15.380952380952381  0 15.142857142857142  L 0 0.8571428571428577  C 0 0.6190476190476186  0.07899305555555555 0.4166666666666661  0.23697916666666669 0.25  C 0.3949652777777778 0.08333333333333393  0.5868055555555556 0  0.8125 0  L 8.395833333333334 0  C 8.621527777777779 0  8.869791666666666 0.0595238095238102  9.140625 0.17857142857142883  C 9.411458333333334 0.29761904761904745  9.625868055555557 0.4404761904761898  9.783854166666666 0.6071428571428577  Z M 9.013671875 1.4107142857142865  C 8.945963541666666 1.3392857142857135  8.83029513888889 1.273809523809522  8.666666666666666 1.2142857142857135  L 8.666666666666666 4.571428571428571  L 11.848958333333334 4.571428571428571  C 11.792534722222223 4.398809523809522  11.73046875 4.2767857142857135  11.662760416666666 4.205357142857142  L 9.013671875 1.4107142857142865  Z M 1 14.857142857142858  L 11.916666666666666 14.857142857142858  L 11.916666666666666 5.7142857142857135  L 8.395833333333334 5.7142857142857135  C 8.17013888888889 5.7142857142857135  7.978298611111112 5.63095238095238  7.8203125 5.4642857142857135  C 7.662326388888888 5.2976190476190474  7.583333333333334 5.095238095238093  7.583333333333334 4.857142857142858  L 7.583333333333334 1.1428571428571423  L 1 1.1428571428571423  L 1 14.857142857142858  Z M 3.25 7.7142857142857135  L 3.25 7.142857142857142  C 3.25 7.059523809523808  3.275390625 6.991071428571429  3.326171875 6.9375  C 3.376953125000001 6.883928571428571  3.441840277777778 6.857142857142858  3.520833333333333 6.857142857142858  L 9.479166666666666 6.857142857142858  C 9.558159722222223 6.857142857142858  9.623046875 6.883928571428571  9.673828125 6.9375  C 9.724609375 6.991071428571429  9.75 7.059523809523808  9.75 7.142857142857142  L 9.75 7.7142857142857135  C 9.75 7.7976190476190474  9.724609375 7.866071428571429  9.673828125 7.919642857142858  C 9.623046875 7.9732142857142865  9.558159722222223 8  9.479166666666666 8  L 3.520833333333333 8  C 3.441840277777778 8  3.376953125000001 7.9732142857142865  3.326171875 7.919642857142858  C 3.275390625 7.866071428571429  3.25 7.7976190476190474  3.25 7.7142857142857135  Z M 3.520833333333333 9.142857142857142  L 9.479166666666666 9.142857142857142  C 9.558159722222223 9.142857142857142  9.623046875 9.169642857142858  9.673828125 9.223214285714285  C 9.724609375 9.276785714285715  9.75 9.345238095238095  9.75 9.428571428571429  L 9.75 10  C 9.75 10.083333333333332  9.724609375 10.151785714285715  9.673828125 10.205357142857142  C 9.623046875 10.258928571428571  9.558159722222223 10.285714285714285  9.479166666666666 10.285714285714285  L 3.520833333333333 10.285714285714285  C 3.441840277777778 10.285714285714285  3.376953125000001 10.258928571428571  3.326171875 10.205357142857142  C 3.275390625 10.151785714285715  3.25 10.083333333333332  3.25 10  L 3.25 9.428571428571429  C 3.25 9.345238095238095  3.275390625 9.276785714285715  3.326171875 9.223214285714285  C 3.376953125000001 9.169642857142858  3.441840277777778 9.142857142857142  3.520833333333333 9.142857142857142  Z M 3.520833333333333 11.428571428571429  L 9.479166666666666 11.428571428571429  C 9.558159722222223 11.428571428571429  9.623046875 11.455357142857142  9.673828125 11.508928571428571  C 9.724609375 11.5625  9.75 11.630952380952381  9.75 11.714285714285715  L 9.75 12.285714285714285  C 9.75 12.369047619047619  9.724609375 12.4375  9.673828125 12.491071428571429  C 9.623046875 12.544642857142858  9.558159722222223 12.571428571428571  9.479166666666666 12.571428571428571  L 3.520833333333333 12.571428571428571  C 3.441840277777778 12.571428571428571  3.376953125000001 12.544642857142858  3.326171875 12.491071428571429  C 3.275390625 12.4375  3.25 12.369047619047619  3.25 12.285714285714285  L 3.25 11.714285714285715  C 3.25 11.630952380952381  3.275390625 11.5625  3.326171875 11.508928571428571  C 3.376953125000001 11.455357142857142  3.441840277777778 11.428571428571429  3.520833333333333 11.428571428571429  Z " fill-rule="nonzero" fill="#aaaaaa" stroke="none" transform="matrix(1 0 0 1 6 135 )" />
  </g>
</svg>