<?xml version="1.0" encoding="utf-8"?>
<svg version="1.1" xmlns:xlink="http://www.w3.org/1999/xlink" width="20px" height="20px" xmlns="http://www.w3.org/2000/svg">
  <g transform="matrix(1 0 0 1 -3 -159 )">
    <path d="M 19.9568345323741 10  C 19.9568345323741 4.485576923076923  15.477218225419664 0  9.976019184652278 0  L 9.942446043165468 0  C 7.28537170263789 0.009615384615384753  4.7913669064748206 1.0528846153846156  2.91127098321343 2.9374999999999996  C 1.0359712230215825 4.826923076923077  0 7.331730769230768  0 10  C 0 12.668269230769232  1.0359712230215825 15.173076923076925  2.9160671462829733 17.0625  C 4.7913669064748206 18.947115384615383  7.290167865707434 19.990384615384613  9.94724220623501 20  L 9.98081534772182 20  C 15.482014388489207 20  19.9568345323741 15.514423076923077  19.9568345323741 10  Z M 16.810551558752998 4.653846153846154  C 17.86570743405276 6.009615384615384  18.489208633093526 7.615384615384616  18.61870503597122 9.326923076923077  L 14.896882494004798 9.326923076923077  C 14.853717026378899 8.043269230769232  14.695443645083934 6.8173076923076925  14.42685851318945 5.663461538461539  C 15.247002398081538 5.399038461538463  16.0431654676259 5.062500000000001  16.810551558752998 4.653846153846154  Z M 9.304556354916066 6.346153846153846  L 9.304556354916066 9.326923076923077  L 6.3405275779376495 9.326923076923077  C 6.378896882494005 8.149038461538462  6.522781774580336 7.033653846153847  6.7625899280575545 6.004807692307692  C 7.597122302158273 6.1923076923076925  8.446043165467627 6.307692307692308  9.304556354916066 6.346153846153846  Z M 6.3405275779376495 10.673076923076923  L 9.304556354916066 10.673076923076923  L 9.304556354916066 13.64903846153846  C 8.45083932853717 13.6875  7.597122302158273 13.802884615384613  6.7625899280575545 13.990384615384615  C 6.522781774580336 12.961538461538462  6.378896882494005 11.846153846153843  6.3405275779376495 10.673076923076923  Z M 10.64748201438849 13.64903846153846  L 10.64748201438849 10.673076923076923  L 13.587529976019185 10.673076923076923  C 13.549160671462829 11.846153846153843  13.405275779376499 12.961538461538462  13.16546762589928 13.985576923076922  C 12.34052757793765 13.798076923076923  11.496402877697843 13.6875  10.64748201438849 13.64903846153846  Z M 13.587529976019185 9.326923076923077  L 10.64748201438849 9.326923076923077  L 10.64748201438849 6.346153846153846  C 11.501199040767387 6.3076923076923075  12.345323741007192 6.1923076923076925  13.16546762589928 6.009615384615384  C 13.405275779376499 7.038461538461539  13.549160671462829 8.149038461538462  13.587529976019185 9.326923076923077  Z M 12.80095923261391 1.7836538461538458  C 13.952038369304557 2.182692307692307  15.00239808153477 2.822115384615384  15.894484412470023 3.658653846153846  C 15.304556354916066 3.951923076923076  14.695443645083932 4.201923076923077  14.071942446043163 4.403846153846153  C 13.731414868105514 3.3749999999999996  13.299760191846522 2.4855769230769225  12.80095923261391 1.7836538461538458  Z M 10.64748201438849 1.5096153846153848  C 11.462829736211031 1.951923076923077  12.258992805755398 3.1394230769230775  12.805755395683454 4.75  C 12.100719424460433 4.903846153846153  11.376498800959231 5  10.64748201438849 5.038461538461539  L 10.64748201438849 1.5096153846153848  Z M 7.122302158273381 4.740384615384615  C 7.678657074340527 3.1153846153846154  8.484412470023981 1.9278846153846152  9.304556354916066 1.4903846153846154  L 9.304556354916066 5.033653846153846  C 8.565947242206235 4.995192307692307  7.836930455635493 4.89903846153846  7.122302158273381 4.740384615384615  Z M 4.057553956834532 3.658653846153846  C 4.940047961630695 2.8269230769230766  5.980815347721822 2.192307692307692  7.117505995203838 1.7980769230769234  C 6.623501199040767 2.495192307692308  6.19664268585132 3.379807692307693  5.856115107913668 4.399038461538462  C 5.242206235011989 4.197115384615385  4.6378896882494 3.9471153846153846  4.057553956834532 3.658653846153846  Z M 1.3381294964028767 9.322115384615387  C 1.4628297362110299 7.620192307692309  2.086330935251797 6.0144230769230775  3.1414868105515588 4.658653846153847  C 3.899280575539569 5.062500000000001  4.690647482014389 5.399038461538463  5.501199040767386 5.658653846153847  C 5.227817745803357 6.807692307692309  5.069544364508393 8.038461538461538  5.031175059952037 9.322115384615387  L 1.3381294964028767 9.322115384615387  Z M 3.1366906474820153 15.336538461538463  C 2.0863309352518 13.985576923076922  1.4628297362110327 12.379807692307692  1.3333333333333333 10.673076923076923  L 5.026378896882494 10.673076923076923  C 5.069544364508394 11.956730769230768  5.227817745803357 13.1875  5.496402877697842 14.336538461538462  C 4.685851318944845 14.600961538461538  3.8944844124700246 14.9375  3.1366906474820153 15.336538461538463  Z M 7.117505995203838 18.206730769230766  C 5.980815347721823 17.802884615384617  4.940047961630695 17.173076923076923  4.052757793764988 16.341346153846153  C 4.633093525179856 16.052884615384613  5.2374100719424455 15.802884615384617  5.856115107913668 15.600961538461537  C 6.196642685851318 16.625  6.623501199040767 17.504807692307693  7.117505995203838 18.206730769230766  Z M 9.304556354916066 18.509615384615387  C 8.479616306954437 18.072115384615383  7.678657074340527 16.879807692307693  7.122302158273381 15.25480769230769  C 7.836930455635493 15.096153846153843  8.57074340527578 14.999999999999998  9.304556354916066 14.961538461538456  L 9.304556354916066 18.509615384615387  Z M 12.805755395683454 15.245192307692307  C 12.258992805755398 16.860576923076923  11.462829736211031 18.04807692307692  10.64748201438849 18.490384615384613  L 10.64748201438849 14.956730769230768  C 11.376498800959231 14.995192307692307  12.100719424460433 15.091346153846153  12.805755395683454 15.245192307692307  Z M 15.899280575539569 16.346153846153847  C 15.007194244604316 17.177884615384617  13.952038369304557 17.817307692307693  12.805755395683454 18.216346153846153  C 13.304556354916066 17.514423076923077  13.736211031175058 16.625  14.07673860911271 15.596153846153843  C 14.700239808153476 15.798076923076923  15.314148681055158 16.052884615384613  15.899280575539569 16.346153846153847  Z M 18.618705035971225 10.673076923076923  C 18.48920863309353 12.379807692307692  17.8705035971223 13.985576923076922  16.810551558752998 15.341346153846152  C 16.0431654676259 14.932692307692307  15.247002398081532 14.596153846153845  14.42685851318945 14.331730769230768  C 14.695443645083934 13.182692307692307  14.853717026378897 11.956730769230768  14.896882494004798 10.673076923076923  L 18.618705035971225 10.673076923076923  Z " fill-rule="nonzero" fill="#7ac8b3" stroke="none" transform="matrix(1 0 0 1 3 159 )" />
  </g>
</svg>